<?xml version="1.0" encoding="utf-8"?>
<!-- Generator: Adobe Illustrator 27.6.1, SVG Export Plug-In . SVG Version: 6.00 Build 0)  -->
<svg version="1.0" id="レイヤー_1" xmlns="http://www.w3.org/2000/svg" xmlns:xlink="http://www.w3.org/1999/xlink" x="0px"
	 y="0px" width="334.4px" height="91.6px" viewBox="0 0 334.4 91.6" enable-background="new 0 0 334.4 91.6" xml:space="preserve">
<g>
	<path stroke="#000000" stroke-miterlimit="10" d="M39.1,32.4c-1.7-1.4-3.5-2.7-5.6-3.7c-2.1-1-4.2-1.9-6.3-2.7c-2.7-1-5.1-2-7.1-3
		c-2.1-1-3.7-2.2-4.9-3.6c-1.2-1.4-1.8-3.2-1.8-5.4c0-2.6,0.8-4.7,2.5-6.3c1.6-1.6,3.8-2.3,6.4-2.3c2.6,0,4.9,0.8,6.9,2.3
		c2,1.5,3.5,3.5,4.7,6c1.2,2.5,1.9,5.3,2.2,8.4c0.1,0.9,0.5,1.5,1.2,1.7c0.7,0.2,1.3,0.2,2-0.2c0.7-0.4,0.9-1,0.9-1.8
		c-0.1-1.8-0.2-3.5-0.3-5.2c-0.1-1.6-0.1-3.4-0.1-5.1c0-1.8,0.2-3.7,0.4-5.8c0.1-0.7-0.1-1.3-0.7-1.6c-0.6-0.3-1.2-0.4-1.8-0.2
		c-0.6,0.2-1,0.7-1.2,1.6l-0.4,2.1c-1.4-1.5-3.4-2.7-6-3.6c-2.6-0.9-5.1-1.3-7.7-1.3c-1.8,0-3.8,0.3-6.1,0.8
		c-2.2,0.5-4.4,1.4-6.5,2.7c-2.1,1.3-3.8,3.1-5.1,5.4c-1.3,2.3-2,5.3-2,8.9c0,2.9,0.5,5.4,1.6,7.4c1,2.1,2.5,3.9,4.2,5.4
		c1.8,1.5,3.7,2.8,5.8,3.9c2.1,1.1,4.2,2.1,6.3,3c2.3,1,4.5,2,6.5,3.1c2,1.1,3.6,2.5,4.9,4.1c1.2,1.6,1.8,3.6,1.8,6.1
		c0,3-1,5.5-2.9,7.6s-4.6,3.1-8,3.1c-2.8,0-5.2-0.6-7.4-1.7c-2.2-1.2-4-2.7-5.5-4.5C8.2,56,7.1,54,6.3,51.9c-0.8-2.1-1.3-4-1.4-5.9
		c-0.1-1-0.5-1.6-1.2-1.8c-0.7-0.2-1.4-0.1-2.1,0.2c-0.7,0.3-1,0.9-0.9,1.6C1,49,1.1,52,1,54.9c-0.1,2.9-0.2,5.7-0.5,8.4
		c-0.1,0.7,0.2,1.3,0.9,1.6c0.6,0.3,1.3,0.3,2,0.1c0.7-0.3,1.1-0.8,1.2-1.7L5,60.1c2.3,2,4.9,3.7,7.7,4.9c2.9,1.2,6.1,1.9,9.5,1.9
		c4,0,7.7-0.9,11.1-2.6c3.4-1.7,6.1-4.2,8.2-7.4c2.1-3.2,3.1-6.9,3.1-11.2c0-3.1-0.5-5.8-1.5-7.9C42.1,35.7,40.8,33.9,39.1,32.4z"/>
	<path stroke="#000000" stroke-miterlimit="10" d="M241.3,63.1c-1.8,0-3.1-0.8-3.7-2.3c-0.7-1.5-1-3.2-1-5.1V30.9
		c0-1.1,0-2.1,0.1-2.9c0.1-0.9,0.2-1.6,0.3-2.2c0.1-0.6,0-1.1-0.4-1.5c-0.4-0.4-1-0.5-1.7-0.4c-0.2,0.1-0.8,0.1-1.6,0.2
		c-0.9,0.1-1.8,0.2-3,0.2c-1.1,0.1-2.3,0.1-3.5,0.2c-1.2,0.1-2.2,0.1-3.1,0.1h-4.9c-0.5,0-0.9,0.2-1,0.6c-0.2,0.4-0.2,0.8,0,1.2
		c0.2,0.4,0.5,0.6,1,0.6c1.8,0,3,0.6,3.7,1.8c0.7,1.2,1,2.8,1,4.8v15.8c0,2.7-0.4,5-1.2,6.9c-0.8,1.9-1.9,3.3-3.2,4.3
		c-1.3,1-2.8,1.5-4.4,1.5c-1.2,0-2.2-0.4-2.9-1.3c-0.7-0.9-1-2-1.1-3.4c-0.1-4.4-0.1-8.8-0.1-13.2c0-4.4,0-8.8,0.1-13.2
		c0.1-1.1,0.1-2.1,0.2-2.9c0.1-0.9,0.1-1.6,0.3-2.2c0.1-0.6,0-1.1-0.4-1.5c-0.4-0.4-1-0.5-1.7-0.4c-0.2,0.1-0.8,0.1-1.6,0.2
		c-0.9,0.1-1.8,0.2-3,0.2c-1.1,0.1-2.3,0.1-3.5,0.2c-1.2,0.1-2.2,0.1-3.1,0.1h-3.3c-0.3-0.8-0.6-1.5-0.9-2.3
		c-1.7-3.9-4.1-7.2-7.1-10.2c-3-2.9-6.4-5.2-10.2-6.9c-3.8-1.7-7.7-2.5-11.8-2.5c-4.1,0-8.1,0.8-11.9,2.5c-3.8,1.7-7.2,4-10.2,6.9
		c-3,2.9-5.4,6.3-7.1,10.2c-1.7,3.8-2.5,7.7-2.6,12c-0.1-0.2-0.2-0.4-0.3-0.7c-1.4-3.1-3.3-5.6-5.8-7.5c-2.5-1.9-5.6-2.8-9.1-2.8
		c-2.7,0-5,0.6-7.1,1.7c-2,1.2-3.7,2.6-4.9,4.3c-1.2,1.7-2,3.5-2.4,5.2h-0.3l0.5-10V7.6c0-1.1,0-2.1,0.1-2.9
		c0.1-0.9,0.2-1.6,0.3-2.2c0.1-0.6-0.1-1.1-0.6-1.6c-0.5-0.4-1-0.6-1.5-0.4c-0.2,0.1-1,0.1-2.2,0.2C98,0.9,96.6,1,95,1
		c-1.6,0.1-3,0.1-4.4,0.2c-1.4,0-2.4,0-3,0h-3.2c-0.5,0-0.9,0.2-1,0.6c-0.2,0.4-0.2,0.8,0,1.2c0.2,0.4,0.5,0.6,1,0.6
		c2.2,0,3.6,0.6,4.4,1.8c0.8,1.2,1.1,2.8,1.1,4.8v45c0,1.6-0.1,3-0.2,4.2c-0.1,1.2-0.5,2.2-1.1,2.9c-0.2,0.2-0.4,0.4-0.6,0.5
		c-1-0.3-1.7-1-2.2-2c-0.7-1.5-1-3.2-1-5.1V30.9c0-1.1,0-2.1,0.1-2.9c0.1-0.9,0.2-1.6,0.3-2.2c0.1-0.6,0-1.1-0.4-1.5
		c-0.4-0.4-1-0.5-1.7-0.4c-0.2,0.1-0.8,0.1-1.6,0.2c-0.9,0.1-1.8,0.2-3,0.2c-1.1,0.1-2.3,0.1-3.5,0.2c-1.2,0.1-2.2,0.1-3.1,0.1h-4.9
		c-0.5,0-0.9,0.2-1,0.6c-0.2,0.4-0.2,0.8,0,1.2c0.2,0.4,0.5,0.6,1,0.6c1.8,0,3,0.6,3.7,1.8c0.7,1.2,1,2.8,1,4.8v15.8
		c0,2.7-0.4,5-1.2,6.9c-0.8,1.9-1.9,3.3-3.2,4.3c-1.3,1-2.8,1.5-4.4,1.5c-1.2,0-2.2-0.4-2.9-1.3c-0.7-0.9-1.1-2-1.1-3.4
		c-0.1-4.4-0.1-8.8-0.1-13.2c0-4.4,0-8.8,0.1-13.2c0.1-1.1,0.1-2.1,0.2-2.9c0.1-0.9,0.1-1.6,0.3-2.2c0.1-0.6,0-1.1-0.4-1.5
		c-0.4-0.4-1-0.5-1.7-0.4c-0.2,0.1-0.8,0.1-1.6,0.2c-0.9,0.1-1.8,0.2-3,0.2c-1.1,0.1-2.3,0.1-3.5,0.2c-1.2,0.1-2.2,0.1-3.1,0.1h-4.9
		c-0.5,0-0.9,0.2-1,0.6c-0.2,0.4-0.2,0.8,0,1.2c0.2,0.4,0.5,0.6,1,0.6c1.8,0,3.1,0.6,3.7,1.8c0.7,1.2,1,2.8,0.9,4.8
		c-0.1,2.8-0.1,5.6-0.1,8.4c0,2.8,0,5.6,0,8.4c0,2.8,0.1,5.6,0.1,8.5c0.1,2.6,1.2,4.5,3.3,6c2.1,1.4,4.7,2.1,7.9,2.1
		c2.7,0,5-0.4,7.1-1.2c2.1-0.8,3.9-2.2,5.4-4.2c1.5-2,2.6-4.7,3.4-8.1h0.3v5.9c0,1.1,0,2.1,0.1,3c0.1,0.9,0.2,1.6,0.3,2.1
		c0.1,0.6,0.4,1.1,0.8,1.5c0.4,0.5,0.8,0.6,1.3,0.4c0.2-0.1,0.7-0.1,1.4-0.2c0.7-0.1,1.5-0.2,2.5-0.2c0.9-0.1,1.9-0.1,2.8-0.2
		c0.8,0,1.5-0.1,2.1-0.1c0,0.1,0,0.1,0.1,0.2c0.2,0.4,0.5,0.6,0.9,0.5c0.9-0.1,2.1-0.2,3.7-0.3c1.6-0.1,3.3-0.2,5.1-0.3
		c1.8-0.1,3.2-0.1,4.4-0.1c0.1,0,0.4,0,0.9,0s1,0,1.5,0c0.5,0,0.8,0,0.9,0c0.9,0,1.3-0.4,1.3-1.3V60h0.3c1,2.1,2.4,3.8,4.3,5
		s4.1,1.9,6.7,1.9c4,0,7.5-1.1,10.5-3.2s5.3-5,7-8.5c1.5-3.2,2.3-6.6,2.5-10.3c0.1,0.4,0.3,0.8,0.5,1.2c1.5,3.6,3.5,6.9,6.1,9.7
		c2.6,2.9,5.5,5.2,8.9,7.1s6.9,3.1,10.6,3.7c-0.8,1-1.7,1.8-2.8,2.6c-1.1,0.8-2.4,1.3-3.8,1.5c-2,0-3.6,0.5-4.6,1.5
		c-1.1,1-1.6,2.1-1.8,3.4c-0.1,1.3,0.1,2.5,0.9,3.4c0.7,1,1.8,1.5,3.3,1.5c1.2,0,2.2-0.3,2.9-0.9c0.7-0.6,1.3-1.4,1.8-2.4
		c0.5-1,0.7-2.1,0.9-3.3c1.4-0.1,2.8,0.3,4.1,1.1c1.3,0.8,2.7,1.9,4,3.1c1.4,1.3,2.8,2.7,4.2,4.1c1.4,1.5,3,2.9,4.7,4.2
		c1.7,1.3,3.5,2.4,5.5,3.2c2,0.8,4.2,1.2,6.6,1.2c2.8-0.1,5.6-0.8,8.4-2.2c2.8-1.4,5.2-3.3,7.2-5.6c2.1-2.4,3.5-5,4.4-8
		c0.2-0.6,0.1-1.1-0.3-1.4c-0.4-0.3-0.8-0.4-1.2-0.4c-0.5,0.1-0.8,0.4-1,0.9c-0.9,2.4-2,4.1-3.1,4.9c-1.2,0.9-2.4,1.3-3.7,1.3
		c-1.9,0-4-0.3-6.3-1c-2.3-0.7-4.7-1.5-7.2-2.5c-2.5-1-5.1-1.9-7.8-2.9c-2.7-0.9-5.4-1.7-8.3-2.3s-5.6-0.8-8.5-0.6l-0.1-0.4
		c0.6-0.4,1.2-0.8,1.9-1.2c0.6-0.4,1.4-0.9,2.3-1.5c0.8-0.5,1.4-0.9,1.9-1.1c0.5-0.2,1-0.3,1.6-0.4c3.8-0.3,7.5-1.3,11.1-3
		c3.6-1.7,6.8-4.1,9.6-7c2.8-2.9,5.1-6.3,6.7-10.1c1.6-3.8,2.5-7.9,2.5-12.3c0-2.4-0.3-4.7-0.8-7c0.5,0.3,0.9,0.7,1.2,1.2
		c0.7,1.2,1,2.8,0.9,4.8c-0.1,2.8-0.1,5.6-0.1,8.4c0,2.8,0,5.6,0,8.4c0,2.8,0.1,5.6,0.1,8.5c0.1,2.6,1.2,4.5,3.3,6
		c2.1,1.4,4.7,2.1,7.9,2.1c2.7,0,5-0.4,7.1-1.2c2.1-0.8,3.9-2.2,5.4-4.2c1.5-2,2.6-4.7,3.4-8.1h0.3v5.9c0,1.1,0,2.1,0.1,3
		c0.1,0.9,0.2,1.6,0.3,2.1c0.1,0.6,0.4,1.1,0.8,1.5c0.4,0.5,0.8,0.6,1.3,0.4c0.2-0.1,0.7-0.1,1.4-0.2c0.7-0.1,1.5-0.2,2.5-0.2
		c0.9-0.1,1.9-0.1,2.8-0.2c0.9-0.1,1.7-0.1,2.4-0.1h4.9c0.5,0,0.9-0.2,1-0.6c0.2-0.4,0.2-0.8,0-1.2
		C242.1,63.3,241.8,63.1,241.3,63.1z M117.8,58.9c-1.6,3.2-3.7,4.8-6.4,4.8c-1.6,0-3.1-0.5-4.4-1.5s-2.3-2.4-2.9-4.1
		c-0.7-1.7-1-3.6-1-5.6V40.7c0-2.7,0.4-5,1.3-6.9c0.9-1.9,2-3.4,3.4-4.4c1.4-1,2.7-1.5,4-1.5c2.7,0,4.7,1.5,6.2,4.4
		c1.5,3,2.2,7.1,2.2,12.5C120.2,51,119.4,55.7,117.8,58.9z M179.4,46.4c-0.6,3.4-1.5,6.5-2.8,9.1c-1.3,2.6-2.9,4.7-4.9,6.2
		c-2,1.5-4.4,2.2-7.3,2.2c-2.8,0-5.3-0.8-7.3-2.3c-2-1.6-3.7-3.7-4.9-6.5c-1.3-2.8-2.2-6-2.8-9.7c-0.6-3.7-0.9-7.6-0.9-11.7
		c0-3.9,0.3-7.5,0.9-10.9c0.6-3.4,1.5-6.4,2.8-9c1.3-2.6,2.9-4.6,4.9-6c2-1.4,4.4-2.2,7.3-2.2c2.8,0,5.3,0.8,7.3,2.3
		c2,1.5,3.7,3.7,4.9,6.4s2.2,5.9,2.8,9.5c0.6,3.6,0.9,7.5,0.9,11.6C180.3,39.3,180,43,179.4,46.4z"/>
	<path stroke="#000000" stroke-miterlimit="10" d="M333.3,54.6c-0.5-0.3-1-0.4-1.5-0.3c-0.5,0.1-0.8,0.5-0.9,1.2
		c-0.3,1.6-0.8,3-1.6,4.1c-0.8,1.1-1.8,1.6-3.1,1.6c-1.2,0-2.1-0.5-2.7-1.6c-0.5-1-0.8-2.4-0.8-4c0-3.2,0-6.3,0.1-9.3
		c0.1-3,0.2-6.1,0.3-9.2c0.1-3.1,0.3-6.2,0.4-9.4h7.7c0.6,0,0.9-0.3,1.1-0.8c0.2-0.5,0.2-1.1,0-1.6c-0.2-0.5-0.5-0.8-1.1-0.8h-7.5
		l0.6-13c0.1-0.5-0.1-0.9-0.5-1c-0.4-0.2-0.8-0.2-1.3,0c-0.5,0.2-0.7,0.5-0.9,1c-0.6,2.6-1.4,4.8-2.6,6.6c-1.1,1.9-2.8,3.4-4.9,4.6
		c-2.1,1.1-5,1.9-8.6,2.2c0-0.1,0-0.2,0-0.3c0.1-0.5-0.1-0.9-0.6-1.1c-0.4-0.2-0.9-0.2-1.3-0.1c-0.5,0.1-0.8,0.5-0.9,1.1l-0.3,1.4
		c-1.1-0.9-2.5-1.5-4.3-2c-1.8-0.5-3.5-0.7-5.2-0.7c-1.5,0-3.2,0.2-5.1,0.7c-1.9,0.5-3.7,1.3-5.4,2.3c-1.7,1.1-3.1,2.5-4.2,4.3
		c-0.3,0.5-0.6,1.1-0.8,1.6c-0.3-0.7-0.7-1.3-1.1-1.9c-1.5-2.2-3.6-3.9-6.2-5.2c-2.6-1.3-5.5-1.9-8.7-1.9s-6.2,0.7-9,2
		c-2.8,1.3-5.2,3.1-7.3,5.4c-2.1,2.3-3.7,4.8-4.9,7.7c-1.2,2.9-1.7,5.8-1.7,8.9c0,3.6,0.8,7,2.5,10c1.6,3,4.1,5.4,7.2,7.1
		c3.2,1.8,7.1,2.6,11.7,2.6c3.2,0,6.2-0.5,8.8-1.5c2.6-1,4.8-2.5,6.6-4.3c0.3-0.4,0.6-0.7,0.9-1.1c-0.1,1.5-0.2,3-0.3,4.4
		c-0.1,0.6,0.1,1,0.6,1.1s1,0.2,1.5,0c0.5-0.2,0.9-0.6,1-1.1l0.4-2.1c1.6,1.4,3.5,2.5,5.6,3.3c2.1,0.9,4.5,1.3,7.1,1.3
		c3.1,0,6-0.6,8.7-1.8c2.7-1.2,4.8-3,6.5-5.3c1.1-1.5,1.8-3.2,2.2-5.2c0,1.1,0,2.3,0,3.4c-0.1,2.8,1,4.9,3.1,6.4
		c2.2,1.5,4.8,2.2,7.9,2.1c3.5-0.1,6.5-0.9,9-2.7c2.5-1.7,3.9-4.3,4.3-7.7C334,55.4,333.8,54.9,333.3,54.6z M255,30
		c1.5-2.6,3.5-3.9,5.8-3.9c1.4,0,2.4,0.3,3.2,1c0.8,0.7,1.3,1.5,1.6,2.4c0.3,1,0.5,2,0.5,3.1c0,1.9-0.5,3.4-1.5,4.5
		c-1,1.1-2.7,1.7-5.1,1.7c-2.2,0-4.4,0-6.7,0C253,35.1,253.7,32.2,255,30z M297.9,62.3c-1.4,1.1-3.2,1.6-5.6,1.6c-2.7,0-5-0.7-6.9-2
		c-1.9-1.4-3.3-3-4.3-4.9c-1-1.9-1.6-3.7-1.8-5.4c-0.1-0.7-0.4-1.1-0.9-1.3c-0.5-0.2-1.1-0.1-1.6,0.1c-0.5,0.2-0.7,0.6-0.7,1.2
		c0,0.4,0.1,0.9,0.1,1.3c-0.2,0.2-0.4,0.4-0.5,0.8c-0.7,2.6-2.1,4.6-4,5.9c-1.9,1.3-4.1,2-6.4,2c-3.7,0-6.7-1.8-9.1-5.4
		c-2.3-3.4-3.5-8.3-3.6-14.5h23.6c0.4,0,0.7-0.1,1-0.2c0.4,1,0.8,2,1.5,2.7c1.4,1.7,3.2,3,5.4,3.9c2.2,0.9,4.3,1.7,6.5,2.4
		c1.7,0.5,3.3,1.1,4.7,1.7c1.4,0.6,2.6,1.3,3.4,2.3c0.9,0.9,1.3,2.1,1.3,3.6C300,59.7,299.3,61.2,297.9,62.3z M309.8,37.8
		c-0.1,3.4-0.2,6.8-0.2,10.1c0,0.2,0,0.5,0,0.7c-0.3-1.7-0.9-3.1-1.7-4.2c-1.3-1.6-3-2.9-4.9-3.7c-2-0.9-4-1.5-6.1-2
		c-1.9-0.5-3.6-1-5.3-1.4c-1.7-0.5-3-1.1-4.1-2c-1.1-0.9-1.6-2.1-1.6-3.7c0-1.8,0.6-3.1,1.9-4c1.3-0.9,2.9-1.4,4.9-1.4
		c1.9,0,3.5,0.4,4.9,1.1c1.4,0.7,2.6,1.7,3.4,3c0.9,1.3,1.4,2.7,1.5,4.4c0.1,0.8,0.4,1.3,1,1.5c0.5,0.2,1.1,0.2,1.6-0.2
		c0.5-0.4,0.7-1,0.6-1.8c-0.2-1.8-0.2-3.3-0.2-4.8c0-0.5,0-1.1,0-1.6h4.8C310.1,31.1,309.9,34.4,309.8,37.8z"/>
</g>
</svg>
