<?xml version="1.0" encoding="UTF-8"?>
<svg id="_レイヤー_2" data-name="レイヤー 2" xmlns="http://www.w3.org/2000/svg" viewBox="0 0 333.43 90.55">
  <g id="_レイヤー_1-2" data-name="レイヤー 1">
    <g>
      <path d="m38.61,31.95c-1.67-1.45-3.55-2.67-5.62-3.66-2.07-.99-4.19-1.89-6.34-2.68-2.67-1.02-5.05-2.03-7.15-3.02-2.1-.99-3.75-2.2-4.94-3.62-1.19-1.42-1.79-3.23-1.79-5.45,0-2.61.82-4.69,2.47-6.26,1.65-1.56,3.77-2.34,6.38-2.34s4.89.75,6.85,2.26c1.96,1.5,3.53,3.52,4.72,6.04,1.19,2.53,1.93,5.32,2.21,8.38.11.91.51,1.48,1.19,1.7.68.23,1.35.16,2-.21.65-.37.95-.98.89-1.83-.11-1.82-.21-3.55-.3-5.19-.09-1.65-.11-3.36-.09-5.15.03-1.79.16-3.73.38-5.83.11-.74-.11-1.26-.68-1.57-.57-.31-1.16-.38-1.79-.21-.63.17-1.02.71-1.19,1.62l-.43,2.13c-1.42-1.53-3.4-2.74-5.96-3.62-2.55-.88-5.14-1.32-7.75-1.32-1.82,0-3.85.26-6.09.77-2.24.51-4.4,1.42-6.47,2.72-2.07,1.31-3.77,3.12-5.11,5.45-1.33,2.33-2,5.28-2,8.85,0,2.89.52,5.38,1.57,7.45,1.05,2.07,2.45,3.86,4.21,5.36,1.76,1.5,3.69,2.8,5.79,3.87,2.1,1.08,4.2,2.07,6.3,2.98,2.33.97,4.5,2.01,6.51,3.15,2.01,1.14,3.63,2.5,4.85,4.09,1.22,1.59,1.83,3.63,1.83,6.13,0,3.01-.98,5.53-2.94,7.58s-4.64,3.06-8.04,3.06c-2.78,0-5.25-.58-7.4-1.74-2.16-1.16-3.99-2.67-5.49-4.51-1.5-1.84-2.67-3.8-3.49-5.87-.82-2.07-1.29-4.04-1.4-5.92-.06-1.02-.45-1.63-1.19-1.83-.74-.2-1.43-.13-2.09.21-.65.34-.95.88-.89,1.62.28,3.01.38,5.97.3,8.89-.09,2.92-.24,5.72-.47,8.38-.06.74.23,1.26.85,1.57.62.31,1.28.34,1.96.09.68-.26,1.08-.81,1.19-1.66l.51-3.23c2.27,2.04,4.85,3.69,7.75,4.94,2.89,1.25,6.07,1.87,9.53,1.87,4.03,0,7.73-.87,11.11-2.6,3.38-1.73,6.1-4.18,8.17-7.36,2.07-3.18,3.11-6.89,3.11-11.15,0-3.12-.51-5.76-1.53-7.92-1.02-2.16-2.37-3.96-4.04-5.4Z" style="fill: #231815;"/>
      <path d="m240.8,62.63c-1.82,0-3.05-.75-3.7-2.26-.65-1.5-.98-3.22-.98-5.15v-24.85c0-1.08.04-2.06.13-2.94.09-.88.18-1.6.3-2.17.11-.62-.01-1.13-.38-1.53-.37-.4-.95-.54-1.74-.43-.23.06-.77.13-1.62.21-.85.09-1.84.16-2.98.21-1.14.06-2.3.11-3.49.17-1.19.06-2.24.08-3.15.08h-4.94c-.51,0-.85.2-1.02.6-.17.4-.17.81,0,1.23.17.43.51.64,1.02.64,1.81,0,3.05.6,3.7,1.79.65,1.19.98,2.78.98,4.77v15.83c0,2.67-.41,4.95-1.23,6.85-.82,1.9-1.9,3.35-3.23,4.34-1.33.99-2.79,1.49-4.38,1.49-1.25,0-2.21-.43-2.89-1.28-.68-.85-1.05-1.99-1.11-3.4-.06-4.43-.08-8.84-.08-13.24s.03-8.81.08-13.24c.06-1.08.11-2.06.17-2.94.06-.88.14-1.6.25-2.17.11-.62-.01-1.13-.38-1.53-.37-.4-.95-.54-1.75-.43-.23.06-.77.13-1.62.21-.85.09-1.84.16-2.98.21-1.14.06-2.3.11-3.49.17-1.19.06-2.24.08-3.15.08h-3.31c-.27-.77-.57-1.54-.91-2.3-1.73-3.86-4.08-7.25-7.06-10.17-2.98-2.92-6.37-5.22-10.17-6.89-3.8-1.67-7.75-2.51-11.83-2.51s-8.12.84-11.92,2.51c-3.8,1.67-7.21,3.97-10.21,6.89-3.01,2.92-5.38,6.31-7.11,10.17-1.68,3.75-2.54,7.74-2.59,11.97-.09-.22-.17-.44-.26-.65-1.36-3.12-3.31-5.62-5.83-7.49-2.53-1.87-5.57-2.81-9.15-2.81-2.67,0-5.02.58-7.06,1.75-2.04,1.16-3.69,2.61-4.94,4.34-1.25,1.73-2.04,3.48-2.38,5.23h-.34l.51-10.04V7.14c0-1.08.04-2.06.13-2.94.08-.88.18-1.6.3-2.17.11-.62-.08-1.15-.6-1.57-.51-.43-1.02-.55-1.53-.38-.23.06-.95.13-2.17.21-1.22.08-2.61.17-4.17.26-1.56.08-3.04.14-4.43.17-1.39.03-2.4.04-3.02.04h-3.23c-.51,0-.85.2-1.02.6-.17.4-.17.81,0,1.23.17.43.51.64,1.02.64,2.16,0,3.62.6,4.38,1.79.77,1.19,1.15,2.78,1.15,4.77v45.03c0,1.59-.07,2.98-.21,4.17-.14,1.19-.53,2.16-1.15,2.89-.17.2-.37.37-.61.53-.99-.33-1.71-.99-2.16-2.02-.65-1.5-.98-3.22-.98-5.15v-24.85c0-1.08.04-2.06.13-2.94.08-.88.18-1.6.3-2.17.11-.62-.01-1.13-.38-1.53-.37-.4-.95-.54-1.75-.43-.23.06-.77.13-1.62.21-.85.09-1.84.16-2.98.21-1.14.06-2.3.11-3.49.17-1.19.06-2.24.08-3.15.08h-4.94c-.51,0-.85.2-1.02.6-.17.4-.17.81,0,1.23.17.43.51.64,1.02.64,1.82,0,3.05.6,3.7,1.79.65,1.19.98,2.78.98,4.77v15.83c0,2.67-.41,4.95-1.23,6.85-.82,1.9-1.9,3.35-3.23,4.34-1.33.99-2.8,1.49-4.38,1.49-1.25,0-2.21-.43-2.89-1.28-.68-.85-1.05-1.99-1.11-3.4-.06-4.43-.09-8.84-.09-13.24s.03-8.81.09-13.24c.06-1.08.11-2.06.17-2.94.06-.88.14-1.6.26-2.17.11-.62-.01-1.13-.38-1.53-.37-.4-.95-.54-1.75-.43-.23.06-.77.13-1.62.21-.85.09-1.84.16-2.98.21-1.14.06-2.3.11-3.49.17-1.19.06-2.24.08-3.15.08h-4.94c-.51,0-.85.2-1.02.6-.17.4-.17.81,0,1.23.17.43.51.64,1.02.64,1.82,0,3.06.6,3.75,1.79.68,1.19.99,2.78.94,4.77-.06,2.78-.1,5.57-.13,8.38-.03,2.81-.03,5.62,0,8.43.03,2.81.07,5.63.13,8.47.11,2.55,1.2,4.54,3.28,5.96,2.07,1.42,4.69,2.13,7.87,2.13,2.67,0,5.05-.41,7.15-1.23,2.1-.82,3.89-2.21,5.36-4.17,1.47-1.96,2.61-4.67,3.4-8.13h.34v5.87c0,1.08.04,2.07.13,2.98.08.91.18,1.62.3,2.13.11.57.37,1.08.77,1.53.4.45.82.6,1.28.43.23-.06.69-.13,1.4-.21.71-.09,1.53-.16,2.47-.21.94-.06,1.87-.11,2.81-.17.81-.05,1.5-.07,2.12-.08.02.05.03.11.05.16.17.4.48.57.94.51.85-.11,2.1-.21,3.75-.3,1.65-.08,3.35-.17,5.11-.26,1.76-.08,3.23-.13,4.43-.13h3.32c.85,0,1.28-.43,1.28-1.28v-4.34h.26c.96,2.1,2.38,3.77,4.26,5.02s4.11,1.87,6.72,1.87c4.03,0,7.53-1.06,10.51-3.19s5.31-4.95,6.98-8.47c1.51-3.18,2.34-6.62,2.48-10.31.14.4.29.81.45,1.2,1.48,3.63,3.5,6.88,6.09,9.75,2.58,2.87,5.53,5.23,8.85,7.11s6.85,3.09,10.6,3.66c-.8.96-1.73,1.84-2.81,2.64-1.08.79-2.36,1.3-3.83,1.53-2.04,0-3.59.5-4.64,1.49-1.05.99-1.65,2.14-1.79,3.45-.14,1.3.14,2.45.85,3.45.71.99,1.8,1.49,3.28,1.49,1.19,0,2.16-.31,2.89-.94.74-.63,1.33-1.43,1.79-2.43.45-.99.74-2.09.85-3.28,1.42-.06,2.79.33,4.13,1.15,1.33.82,2.68,1.87,4.04,3.15,1.36,1.28,2.77,2.65,4.21,4.13,1.45,1.47,3.01,2.86,4.68,4.17,1.67,1.3,3.5,2.37,5.49,3.19,1.99.82,4.2,1.23,6.64,1.23,2.84-.06,5.63-.78,8.38-2.17,2.75-1.39,5.16-3.26,7.24-5.62,2.07-2.36,3.53-5.01,4.38-7.96.17-.62.07-1.09-.3-1.4-.37-.31-.78-.44-1.23-.38-.45.06-.79.37-1.02.94-.91,2.44-1.96,4.09-3.15,4.94-1.19.85-2.44,1.28-3.75,1.28-1.93,0-4.03-.33-6.3-.98-2.27-.65-4.67-1.48-7.19-2.47-2.53-.99-5.14-1.94-7.83-2.85-2.7-.91-5.45-1.66-8.26-2.26s-5.63-.81-8.47-.64l-.08-.43c.62-.4,1.25-.8,1.87-1.19.62-.4,1.39-.91,2.3-1.53.79-.51,1.42-.87,1.87-1.06.45-.2.99-.33,1.62-.38,3.8-.28,7.49-1.29,11.07-3.02,3.57-1.73,6.78-4.06,9.62-6.98,2.84-2.92,5.08-6.28,6.72-10.09,1.65-3.8,2.47-7.89,2.47-12.26,0-2.4-.27-4.73-.8-6.98.51.29.93.67,1.22,1.19.68,1.19.99,2.78.94,4.77-.06,2.78-.1,5.57-.13,8.38-.03,2.81-.03,5.62,0,8.43.03,2.81.07,5.63.13,8.47.11,2.55,1.21,4.54,3.28,5.96,2.07,1.42,4.7,2.13,7.87,2.13,2.67,0,5.05-.41,7.15-1.23,2.1-.82,3.89-2.21,5.36-4.17,1.47-1.96,2.61-4.67,3.4-8.13h.34v5.87c0,1.08.04,2.07.13,2.98.08.91.18,1.62.3,2.13.11.57.37,1.08.77,1.53.4.45.82.6,1.28.43.23-.06.69-.13,1.4-.21.71-.09,1.53-.16,2.47-.21.94-.06,1.87-.11,2.81-.17.94-.06,1.75-.08,2.43-.08h4.94c.51,0,.85-.2,1.02-.6.17-.4.17-.81,0-1.23-.17-.43-.51-.64-1.02-.64Zm-123.46-4.26c-1.56,3.18-3.7,4.77-6.43,4.77-1.65,0-3.11-.51-4.38-1.53s-2.26-2.4-2.94-4.13c-.68-1.73-1.02-3.59-1.02-5.58v-11.66c0-2.67.44-4.96,1.32-6.89.88-1.93,2-3.4,3.36-4.43,1.36-1.02,2.69-1.53,4-1.53,2.67,0,4.74,1.48,6.21,4.43,1.47,2.95,2.21,7.12,2.21,12.51,0,6.19-.78,10.87-2.34,14.04Zm61.54-12.47c-.6,3.43-1.53,6.47-2.81,9.11-1.28,2.64-2.92,4.7-4.94,6.17-2.01,1.48-4.44,2.21-7.28,2.21s-5.26-.78-7.28-2.34c-2.01-1.56-3.66-3.73-4.94-6.51-1.28-2.78-2.21-6-2.81-9.66-.6-3.66-.89-7.56-.89-11.7,0-3.86.3-7.49.89-10.89.6-3.4,1.53-6.4,2.81-8.98,1.28-2.58,2.92-4.6,4.94-6.04,2.01-1.45,4.44-2.17,7.28-2.17s5.26.77,7.28,2.3c2.01,1.53,3.66,3.66,4.94,6.38s2.21,5.89,2.81,9.49c.6,3.6.89,7.48.89,11.62,0,3.92-.3,7.59-.89,11.02Z" style="fill: #231815;"/>
      <path d="m332.85,54.08c-.48-.31-.98-.41-1.49-.3-.51.11-.82.51-.94,1.19-.28,1.65-.81,3.01-1.57,4.09-.77,1.08-1.8,1.62-3.11,1.62s-2.14-.52-2.68-1.57c-.54-1.05-.81-2.37-.81-3.96,0-3.18.03-6.28.08-9.32.06-3.03.16-6.1.3-9.19.14-3.09.27-6.23.38-9.41h7.66c.57,0,.94-.27,1.11-.81.17-.54.17-1.08,0-1.62-.17-.54-.54-.81-1.11-.81h-7.49l.6-13.02c.06-.51-.11-.85-.51-1.02-.4-.17-.82-.17-1.28,0-.46.17-.74.51-.85,1.02-.57,2.55-1.42,4.77-2.55,6.64-1.14,1.87-2.77,3.39-4.89,4.55-2.1,1.15-4.96,1.89-8.57,2.24,0-.11.01-.21.02-.32.06-.51-.13-.86-.55-1.06-.43-.2-.87-.24-1.32-.13-.46.11-.77.48-.94,1.11l-.34,1.45c-1.08-.85-2.51-1.52-4.3-2-1.79-.48-3.53-.72-5.23-.72-1.53,0-3.23.24-5.11.72-1.87.48-3.66,1.26-5.36,2.34-1.7,1.08-3.09,2.51-4.17,4.3-.31.51-.56,1.06-.78,1.63-.31-.65-.67-1.28-1.1-1.89-1.53-2.18-3.59-3.92-6.17-5.19-2.58-1.28-5.49-1.92-8.72-1.92s-6.24.65-9.02,1.96c-2.78,1.31-5.21,3.09-7.28,5.36-2.07,2.27-3.69,4.84-4.85,7.7-1.16,2.87-1.75,5.83-1.75,8.89,0,3.63.82,6.95,2.47,9.96,1.64,3.01,4.06,5.39,7.23,7.15,3.18,1.76,7.06,2.64,11.66,2.64,3.23,0,6.17-.51,8.81-1.53,2.64-1.02,4.84-2.45,6.6-4.3.34-.35.64-.72.93-1.08-.08,1.48-.18,2.96-.33,4.45-.06.57.14.95.6,1.15s.95.2,1.49,0c.54-.2.86-.58.98-1.15l.43-2.13c1.64,1.36,3.52,2.47,5.62,3.32,2.1.85,4.45,1.28,7.06,1.28,3.12,0,6.01-.61,8.68-1.83,2.67-1.22,4.82-2.98,6.47-5.28,1.08-1.51,1.8-3.24,2.17-5.17-.02,1.14-.02,2.29-.04,3.43-.06,2.78.99,4.91,3.15,6.38,2.16,1.47,4.79,2.18,7.92,2.13,3.52-.06,6.52-.95,9.02-2.68,2.5-1.73,3.94-4.3,4.34-7.7.11-.74-.07-1.26-.55-1.57Zm-78.35-24.6c1.53-2.58,3.46-3.87,5.79-3.87,1.36,0,2.43.33,3.19.98.77.65,1.3,1.46,1.62,2.43.31.97.47,1.99.47,3.06,0,1.87-.5,3.36-1.49,4.47-.99,1.11-2.71,1.66-5.15,1.66h-6.66c.2-3.63.94-6.54,2.24-8.72Zm42.94,32.3c-1.39,1.08-3.25,1.62-5.58,1.62-2.72,0-5.02-.68-6.89-2.04-1.87-1.36-3.32-3.01-4.34-4.94-1.02-1.93-1.62-3.72-1.79-5.36-.06-.68-.36-1.11-.89-1.28-.54-.17-1.06-.14-1.57.08-.51.23-.74.62-.68,1.19.05.43.06.88.1,1.31-.24.18-.42.44-.52.82-.74,2.61-2.07,4.57-4,5.87-1.93,1.31-4.06,1.96-6.38,1.96-3.69,0-6.72-1.8-9.11-5.4-2.28-3.44-3.46-8.29-3.56-14.51h23.64c.37,0,.68-.08.97-.22.35,1.04.85,1.96,1.5,2.73,1.42,1.67,3.21,2.97,5.36,3.87,2.16.91,4.31,1.7,6.47,2.38,1.7.51,3.26,1.06,4.68,1.66,1.42.6,2.55,1.35,3.41,2.26.85.91,1.28,2.1,1.28,3.57,0,1.87-.7,3.35-2.08,4.43Zm11.87-24.47c-.11,3.38-.18,6.75-.21,10.13,0,.24,0,.48,0,.73-.29-1.68-.86-3.08-1.73-4.18-1.31-1.65-2.95-2.89-4.94-3.75-1.99-.85-4.03-1.53-6.13-2.04-1.87-.51-3.65-.99-5.32-1.45-1.67-.45-3.04-1.12-4.09-2-1.05-.88-1.57-2.11-1.57-3.7,0-1.76.64-3.09,1.92-4,1.28-.91,2.91-1.36,4.89-1.36,1.87,0,3.52.36,4.94,1.06,1.42.71,2.57,1.7,3.45,2.98.88,1.28,1.38,2.74,1.49,4.38.11.8.44,1.31.98,1.53.54.23,1.06.16,1.57-.21.51-.37.71-.98.6-1.83-.17-1.76-.24-3.35-.21-4.77,0-.51.03-1.06.05-1.62h4.76c-.17,3.35-.31,6.71-.43,10.09Z" style="fill: #231815;"/>
    </g>
  </g>
</svg>